<?xml version="1.0" standalone="no"?><!DOCTYPE svg PUBLIC "-//W3C//DTD SVG 1.1//EN" "http://www.w3.org/Graphics/SVG/1.1/DTD/svg11.dtd"><svg t="1639789133722" class="icon" viewBox="0 0 1024 1024" version="1.1" xmlns="http://www.w3.org/2000/svg" fill="#FFFCFC" p-id="2050" xmlns:xlink="http://www.w3.org/1999/xlink" width="200" height="200"><defs><style type="text/css"></style></defs><path d="M668.16 76.8l-79.36 0c-168.96 0-307.2 120.32-337.92 281.6l81.92 0c7.68 0 15.36 0 23.04 0 28.16-102.4 122.88-179.2 235.52-179.2l76.8 0c133.12 0 243.2 110.08 243.2 243.2S798.72 665.6 665.6 665.6l-61.44 0C601.6 704 593.92 737.28 581.12 768c2.56 0 5.12 0 5.12 0l79.36 0c15.36 0 28.16 0 43.52-2.56 15.36 46.08 58.88 79.36 110.08 79.36 15.36 0 30.72-2.56 46.08-10.24-35.8144-12.8-64-46.08-64-87.0144 0-2.5856 0-5.12 0-10.24C924.16 683.52 1008.64 563.2 1008.64 422.4l0-2.56C1011.2 230.4 857.6 76.8 668.16 76.8zM320 409.6 243.2 409.6c-128 0-230.4 102.4-230.4 230.4 0 92.16 53.76 168.96 130.56 207.36 0 2.5856 0 5.12 0 7.7056 0 28.16-17.92 51.2-40.96 61.4144C110.08 919.04 117.76 921.6 128 921.6c35.84 0 64-23.04 74.24-56.32C215.04 867.84 227.84 870.4 243.2 870.4l76.8 0c128 0 230.4-102.4 230.4-230.4S448 409.6 320 409.6z" stroke="#FFFCFC" p-id="2051"></path></svg>