<?xml version="1.0" standalone="no"?><!DOCTYPE svg PUBLIC "-//W3C//DTD SVG 1.1//EN" "http://www.w3.org/Graphics/SVG/1.1/DTD/svg11.dtd"><svg t="1621753014359" class="icon" viewBox="0 0 1024 1024" version="1.1" xmlns="http://www.w3.org/2000/svg" p-id="5661" xmlns:xlink="http://www.w3.org/1999/xlink" width="200" height="200"><defs><style type="text/css"></style></defs><path d="M815.68 288a69.12 69.12 0 0 0-128 0l-38.4 92.8 57.6 136 45.12-108.8L808 544h-90.24l43.2 102.08h89.92L888.64 736a53.44 53.44 0 0 0 49.92 32A52.16 52.16 0 0 0 992 714.56c0-16.64-169.92-411.2-176.32-426.56zM477.12 220.8a101.44 101.44 0 0 0-186.56 0C26.24 845.76 32 822.4 32 846.72a76.48 76.48 0 0 0 78.4 78.4 78.72 78.72 0 0 0 73.6-48.32l55.36-132.8h288l55.68 133.44a78.4 78.4 0 0 0 73.28 47.68A76.48 76.48 0 0 0 736 846.72c0-24.32 5.44-2.24-258.88-625.92zM301.76 594.24L384 396.48l82.24 197.76z" fill="#282828" p-id="5662"></path></svg>