<?xml version="1.0" standalone="no"?><!DOCTYPE svg PUBLIC "-//W3C//DTD SVG 1.1//EN" "http://www.w3.org/Graphics/SVG/1.1/DTD/svg11.dtd"><svg t="1621761379550" class="icon" viewBox="0 0 1024 1024" version="1.1" xmlns="http://www.w3.org/2000/svg" p-id="3339" xmlns:xlink="http://www.w3.org/1999/xlink" width="200" height="200"><defs><style type="text/css"></style></defs><path d="M213.333333 512a42.666667 42.666667 0 0 0-42.666666-42.666667H128a42.666667 42.666667 0 0 0 0 85.333334h42.666667a42.666667 42.666667 0 0 0 42.666666-42.666667z m27.306667 213.333333l-30.293333 30.293334a42.666667 42.666667 0 0 0 0 60.16 42.666667 42.666667 0 0 0 60.16 0l30.293333-30.293334A42.666667 42.666667 0 0 0 240.64 725.333333zM512 213.333333a42.666667 42.666667 0 0 0 42.666667-42.666666V128a42.666667 42.666667 0 0 0-85.333334 0v42.666667a42.666667 42.666667 0 0 0 42.666667 42.666666z m241.493333 99.84a42.666667 42.666667 0 0 0 29.866667-12.373333l30.293333-30.293333a42.666667 42.666667 0 1 0-60.16-60.16l-28.16 30.293333a42.666667 42.666667 0 0 0 0 60.16 42.666667 42.666667 0 0 0 28.16 12.373333z m-512-12.373333a42.666667 42.666667 0 0 0 29.866667 12.373333 42.666667 42.666667 0 0 0 30.293333-12.373333 42.666667 42.666667 0 0 0 0-60.16l-30.293333-30.293333a42.666667 42.666667 0 0 0-61.013333 60.16zM896 469.333333h-42.666667a42.666667 42.666667 0 0 0 0 85.333334h42.666667a42.666667 42.666667 0 0 0 0-85.333334z m-112.64 256A42.666667 42.666667 0 0 0 725.333333 783.36l30.293334 30.293333a42.666667 42.666667 0 0 0 60.16 0 42.666667 42.666667 0 0 0 0-60.16zM512 277.333333a234.666667 234.666667 0 1 0 234.666667 234.666667A235.093333 235.093333 0 0 0 512 277.333333z m0 384a149.333333 149.333333 0 1 1 149.333333-149.333333 149.333333 149.333333 0 0 1-149.333333 149.333333z m0 149.333334a42.666667 42.666667 0 0 0-42.666667 42.666666v42.666667a42.666667 42.666667 0 0 0 85.333334 0v-42.666667a42.666667 42.666667 0 0 0-42.666667-42.666666z" p-id="3340" fill="#FFFCFC"></path></svg>