<?xml version="1.0" standalone="no"?><!DOCTYPE svg PUBLIC "-//W3C//DTD SVG 1.1//EN" "http://www.w3.org/Graphics/SVG/1.1/DTD/svg11.dtd"><svg t="1639008329173" class="icon" viewBox="0 0 1024 1024" version="1.1" xmlns="http://www.w3.org/2000/svg" p-id="6607" xmlns:xlink="http://www.w3.org/1999/xlink" width="200" height="200"><defs><style type="text/css"></style></defs><path d="M856.339597 799.428571q0 62.285714-35.714286 106.857143t-86 44.571429H246.625311q-50.285714 0-86-44.571429T124.911026 799.428571q0-48.571429 4.857143-91.714285t18-86.857143 33.428571-74.857143 53.714286-50.857143T311.768169 475.428571q74.857143 73.142857 178.857142 73.142858t178.857143-73.142858q43.428571 0 76.857143 19.714286t53.714286 50.857143 33.428571 74.857143 18 86.857143 4.857143 91.714285z m-146.285714-506.857142q0 90.857143-64.285714 155.142857T490.625311 512 335.482454 447.714286 271.19674 292.571429t64.285714-155.142858T490.625311 73.142857t155.142858 64.285714T710.053883 292.571429z" p-id="6608" fill="#FFFCFC"></path></svg>